<svg width="15" height="24" viewBox="0 0 15 24" fill="none" xmlns="http://www.w3.org/2000/svg">
<path fill-rule="evenodd" clip-rule="evenodd" d="M1.56623 11.2491L14.0547 19.4305C15.018 20.0622 15.2898 21.3599 14.6618 22.3289C14.0337 23.2979 12.7437 23.5713 11.7804 22.9396L2.15806 16.6378C2.15806 16.6378 0.951158 15.9401 0.674815 14.6398C0.286864 12.8141 1.56623 11.2491 1.56623 11.2491ZM12.5678 4.76758C13.7003 4.76848 14.6178 5.69222 14.6178 6.8314C14.6178 7.97059 13.7003 8.89433 12.5678 8.89523C12.1424 8.89231 11.7279 8.75932 11.3794 8.51392L8.81117 6.83144L11.3794 5.14886C11.7265 4.90072 12.1419 4.76746 12.5678 4.76758Z" fill="#38D200"/>
<path fill-rule="evenodd" clip-rule="evenodd" d="M2.64926 19.1685C3.07385 19.1714 3.48752 19.3039 3.83538 19.5483L6.39864 21.2242L3.83538 22.9001C3.48887 23.1473 3.07432 23.28 2.64926 23.2799C1.51835 23.2799 0.601562 22.3595 0.601562 21.2242C0.601562 20.0889 1.51835 19.1685 2.64926 19.1685ZM10.8013 1.22937C11.4268 2.19541 11.1538 3.48761 10.1915 4.11557L5.76633 7.00843L13.3063 11.938C13.3063 11.938 14.6634 12.7188 14.9309 14.0364C15.2882 15.7966 14.1479 17.2599 14.0502 17.3812L14.0436 17.3894L2.67646 9.95766C2.67646 9.95766 1.20527 9.06587 1.20527 7.00333C1.20527 4.94765 2.67586 4.06721 2.67586 4.06721L7.9263 0.617228C8.88858 -0.0107344 10.1758 0.263331 10.8013 1.22937Z" fill="#0473EA"/>
</svg>
