<svg width="30" height="31" viewBox="0 0 30 31" fill="none" xmlns="http://www.w3.org/2000/svg">
<path d="M30 0.279907H0V30.2799H30V0.279907Z" fill="#D71E28"/>
<path d="M18.1584 12.2754H17.6683L17.6151 12.515C17.4801 13.1225 17.2884 13.31 16.8374 13.31H15.8892V9.7271H16.5355V9.13342H14.2947V9.7271H14.8736V13.31H14.2947V13.9037H18.1548V12.2754M4.2983 13.9037L3.09801 9.7271H2.55469V9.13342H4.77415V9.7271H4.13494L4.9304 12.6018L5.88565 9.13342H6.86577L7.83878 12.6087L8.62358 9.7271H7.95597V9.13342H13.7337V10.6784H13.2436L13.1939 10.4944C13.0447 9.92153 12.8885 9.72363 12.4304 9.72363H11.3011V11.161H12.6719C12.7251 11.2755 12.7464 11.3589 12.7464 11.4873C12.7464 11.6227 12.7251 11.713 12.6719 11.8276H11.3011V13.3066H12.4801C12.924 13.3066 13.1193 13.1156 13.2578 12.5115L13.3111 12.2719H13.8011V13.9002H9.70668V13.3066H10.2855V9.7271H9.34446L8.15128 13.9037H7.20312L6.23722 10.4423L5.2429 13.9037H4.2983Z" fill="white"/>
<path d="M26.8068 12.5741C26.8068 11.8242 26.3487 11.3069 25.4929 11.109L24.6264 10.9111C24.1222 10.7965 23.9126 10.5986 23.9126 10.2653C23.9126 9.8626 24.2322 9.61263 24.8608 9.61263C25.4858 9.61263 25.8551 9.8383 25.9972 10.3695L26.0575 10.6021H26.5476V9.42515C25.9972 9.1474 25.4112 9.00159 24.8182 9.00159C23.6534 9.00159 22.9041 9.56055 22.9041 10.4598C22.9041 11.1541 23.3409 11.6645 24.179 11.8485L25.0419 12.0394C25.5923 12.1609 25.7983 12.3797 25.7983 12.7407C25.7983 13.1817 25.4645 13.4282 24.7969 13.4282C24.0405 13.4282 23.6534 13.1296 23.483 12.5567L23.3942 12.2651H22.9041V13.5983C23.5256 13.9038 24.1151 14.0427 24.9141 14.0427C26.0575 14.0392 26.8068 13.4663 26.8068 12.5741ZM22.446 12.2755H21.956L21.9027 12.5151C21.7678 13.1226 21.576 13.3136 21.1286 13.3136H20.1804V9.7272H20.8267V9.13352H18.5859V9.7272H19.1648V13.3101H18.5859V13.9038H22.4496V12.2755" fill="white"/>
<path d="M25.8551 18.74C25.8551 17.5353 25.358 16.834 24.4382 16.834C23.5185 16.834 23.0213 17.5353 23.0213 18.74C23.0213 19.9517 23.5114 20.646 24.4382 20.646C25.3651 20.646 25.8551 19.9517 25.8551 18.74ZM26.9737 18.74C26.9737 20.2259 25.919 21.2675 24.4418 21.2675C22.9716 21.2675 21.9098 20.2259 21.9098 18.74C21.9098 17.261 22.9787 16.2125 24.4418 16.2125C25.9119 16.2125 26.9737 17.261 26.9737 18.74ZM19.3175 18.9587C19.3175 19.0941 19.3388 19.1844 19.392 19.292H20.2017V20.4968C19.9354 20.6044 19.669 20.653 19.3991 20.653C18.419 20.653 17.9077 19.9517 17.9077 18.74C17.9077 17.5283 18.419 16.827 19.3459 16.827C19.9673 16.827 20.326 17.1326 20.5391 17.6637L20.6136 17.8547H21.1037V16.6361C20.4893 16.3445 19.9389 16.2125 19.2997 16.2125C17.8011 16.2125 16.7926 17.2124 16.7926 18.747C16.7926 20.285 17.7727 21.2675 19.2997 21.2675C19.907 21.2675 20.532 21.0974 21.2067 20.7641V18.6393H19.3956C19.3388 18.747 19.3175 18.8268 19.3175 18.9587ZM15.1768 17.7193C15.1768 17.2228 14.8714 16.9555 14.2571 16.9555H13.4545V18.4866H14.2571C14.8643 18.4866 15.1768 18.2088 15.1768 17.7193ZM9.84304 19.108L9.17543 17.3027L8.50781 19.108H9.84304ZM16.4979 20.5905C16.5369 20.6669 16.5582 20.7537 16.5582 20.8682C16.5582 20.9828 16.5369 21.0731 16.4979 21.146C16.3487 21.1668 16.157 21.1807 15.9652 21.1807C15.3047 21.1807 14.9851 20.9099 14.9105 20.2746L14.8821 20.035C14.8004 19.3476 14.5767 19.0802 13.8274 19.0802H13.4545V20.5315H14.1009V21.1252H9.81463V20.5315H10.3722L10.0597 19.6809H8.28764L7.97514 20.5315H8.54687V21.1252H6.7429V20.5315H7.21875L8.88778 16.3549H9.79332L11.4943 20.5315H12.4354V16.9555H11.8565V16.3618H14.5945C15.5675 16.3618 16.2031 16.8444 16.2031 17.6221C16.2031 18.3928 15.571 18.799 14.9567 18.8268V18.8476C15.5781 18.8962 15.8303 19.2434 15.8906 19.7816L15.919 20.035C15.9581 20.4308 16.0433 20.6078 16.3558 20.6078C16.4091 20.6044 16.4588 20.5974 16.4979 20.5905ZM6.1179 16.9555C6.57599 16.9555 6.73224 17.1534 6.88139 17.7262L6.93111 17.9102H7.42116V16.3653H3.3125V16.959H3.89134V20.5419H3.3125V21.1356H5.58878V20.5419H4.90696V19.1532H6.30966C6.36293 19.0386 6.38423 18.9483 6.38423 18.8129C6.38423 18.6845 6.36293 18.6011 6.30966 18.4866H4.90696V16.9624H6.1179" fill="white"/>
</svg>
