<svg width="34" height="24" viewBox="0 0 34 24" fill="none" xmlns="http://www.w3.org/2000/svg">
<rect x="0.5" y="0.5" width="33" height="23" rx="3.5" fill="white"/>
<rect x="0.5" y="0.5" width="33" height="23" rx="3.5" stroke="#F2F4F7"/>
<path d="M21.5771 5.03003C25.322 5.03003 28.3584 8.02992 28.3584 11.7302C28.3583 15.4304 25.322 18.4304 21.5771 18.4304C19.8982 18.4304 18.3629 17.8256 17.1787 16.8269C15.9945 17.8255 14.4591 18.4304 12.7803 18.4304C9.03566 18.4302 6.00011 15.4303 6 11.7302C6 8.03005 9.03559 5.03025 12.7803 5.03003C14.459 5.03003 15.9945 5.63411 17.1787 6.63257C18.3629 5.63397 19.8983 5.03006 21.5771 5.03003Z" fill="#ED0006"/>
<path d="M21.5781 5.03003C25.3229 5.03011 28.3584 8.02997 28.3584 11.7302C28.3583 15.4304 25.3229 18.4303 21.5781 18.4304C19.8992 18.4304 18.3639 17.8256 17.1797 16.8269C18.6368 15.598 19.5624 13.7715 19.5625 11.7302C19.5625 9.68873 18.6371 7.86147 17.1797 6.63257C18.3639 5.63403 19.8993 5.03003 21.5781 5.03003Z" fill="#F9A000"/>
<path d="M17.1787 6.63257C18.6363 7.86147 19.5615 9.68859 19.5615 11.7302C19.5615 13.7716 18.636 15.598 17.1787 16.8269C15.7217 15.5981 14.7969 13.7713 14.7969 11.7302C14.7969 9.68889 15.7215 7.86146 17.1787 6.63257Z" fill="#FF5E00"/>
</svg>
