<svg width="158" height="31" viewBox="0 0 158 31" fill="none" xmlns="http://www.w3.org/2000/svg">
<path d="M22.9583 12.3633L6.0416 12.3633M22.9583 12.3633L25.2108 16.1175C25.7156 16.9588 25.968 17.3795 26.0991 17.8324C26.2153 18.2337 26.2612 18.652 26.2348 19.0689C26.2051 19.5394 26.05 20.0048 25.7397 20.9357L25.4886 21.6891C25.0132 23.1152 24.7755 23.8282 24.3346 24.3554C23.9453 24.821 23.4454 25.1813 22.8806 25.4034C22.2411 25.6549 21.4895 25.6549 19.9862 25.6549L9.01367 25.6549C7.51042 25.6549 6.75879 25.6549 6.11925 25.4034C5.55449 25.1813 5.05454 24.821 4.66523 24.3554C4.22436 23.8282 3.98668 23.1152 3.51131 21.6891L3.26018 20.9357C2.9499 20.0048 2.79475 19.5394 2.76503 19.0689C2.73868 18.652 2.78461 18.2337 2.90076 17.8324C3.03185 17.3795 3.28426 16.9588 3.78908 16.1175L6.0416 12.3633M22.9583 12.3633L23.4625 10.5986C23.7015 9.76194 23.821 9.34362 23.7271 9.01267C23.6449 8.72275 23.4573 8.47404 23.2011 8.31531C22.9087 8.13411 22.4736 8.13411 21.6035 8.13411L7.39635 8.13411C6.52623 8.13411 6.09117 8.13411 5.79875 8.31531C5.54258 8.47404 5.35498 8.72275 5.27273 9.01267C5.17884 9.34362 5.29836 9.76194 5.5374 10.5986L6.0416 12.3633M14.4999 8.13411H10.2276C9.59812 8.13411 8.99441 7.8795 8.54929 7.42629C8.10417 6.97308 7.8541 6.35839 7.8541 5.71745C7.8541 5.07651 8.10417 4.46182 8.54929 4.00861C8.99441 3.55539 9.59812 3.30078 10.2276 3.30078C13.5505 3.30078 14.4999 8.13411 14.4999 8.13411ZM14.4999 8.13411H18.7723C19.4018 8.13411 20.0055 7.8795 20.4506 7.42629C20.8957 6.97308 21.1458 6.35839 21.1458 5.71745C21.1458 5.07651 20.8957 4.46182 20.4506 4.00861C20.0055 3.55539 19.4018 3.30078 18.7723 3.30078C15.4493 3.30078 14.4999 8.13411 14.4999 8.13411Z" stroke="#00008B" stroke-width="1.5" stroke-linecap="round" stroke-linejoin="round"/>
<path d="M46.18 20.0599H50.78V22.2799H43.38V8.31991H46.18V20.0599ZM57.4797 22.4599C56.413 22.4599 55.453 22.2266 54.5997 21.7599C53.7464 21.2799 53.073 20.6066 52.5797 19.7399C52.0997 18.8732 51.8597 17.8732 51.8597 16.7399C51.8597 15.6066 52.1064 14.6066 52.5997 13.7399C53.1064 12.8732 53.793 12.2066 54.6597 11.7399C55.5264 11.2599 56.493 11.0199 57.5597 11.0199C58.6264 11.0199 59.593 11.2599 60.4597 11.7399C61.3264 12.2066 62.0064 12.8732 62.4997 13.7399C63.0064 14.6066 63.2597 15.6066 63.2597 16.7399C63.2597 17.8732 62.9997 18.8732 62.4797 19.7399C61.973 20.6066 61.2797 21.2799 60.3997 21.7599C59.533 22.2266 58.5597 22.4599 57.4797 22.4599ZM57.4797 20.0199C57.9864 20.0199 58.4597 19.8999 58.8997 19.6599C59.353 19.4066 59.713 19.0332 59.9797 18.5399C60.2464 18.0466 60.3797 17.4466 60.3797 16.7399C60.3797 15.6866 60.0997 14.8799 59.5397 14.3199C58.993 13.7466 58.3197 13.4599 57.5197 13.4599C56.7197 13.4599 56.0464 13.7466 55.4997 14.3199C54.9664 14.8799 54.6997 15.6866 54.6997 16.7399C54.6997 17.7932 54.9597 18.6066 55.4797 19.1799C56.013 19.7399 56.6797 20.0199 57.4797 20.0199ZM64.5936 16.6999C64.5936 15.5799 64.8136 14.5866 65.2536 13.7199C65.7069 12.8532 66.3136 12.1866 67.0736 11.7199C67.8469 11.2532 68.7069 11.0199 69.6536 11.0199C70.4803 11.0199 71.2003 11.1866 71.8136 11.5199C72.4403 11.8532 72.9403 12.2732 73.3136 12.7799V11.1999H76.1336V22.2799H73.3136V20.6599C72.9536 21.1799 72.4536 21.6132 71.8136 21.9599C71.1869 22.2932 70.4603 22.4599 69.6336 22.4599C68.7003 22.4599 67.8469 22.2199 67.0736 21.7399C66.3136 21.2599 65.7069 20.5866 65.2536 19.7199C64.8136 18.8399 64.5936 17.8332 64.5936 16.6999ZM73.3136 16.7399C73.3136 16.0599 73.1803 15.4799 72.9136 14.9999C72.6469 14.5066 72.2869 14.1332 71.8336 13.8799C71.3803 13.6132 70.8936 13.4799 70.3736 13.4799C69.8536 13.4799 69.3736 13.6066 68.9336 13.8599C68.4936 14.1132 68.1336 14.4866 67.8536 14.9799C67.5869 15.4599 67.4536 16.0332 67.4536 16.6999C67.4536 17.3666 67.5869 17.9532 67.8536 18.4599C68.1336 18.9532 68.4936 19.3332 68.9336 19.5999C69.3869 19.8666 69.8669 19.9999 70.3736 19.9999C70.8936 19.9999 71.3803 19.8732 71.8336 19.6199C72.2869 19.3532 72.6469 18.9799 72.9136 18.4999C73.1803 18.0066 73.3136 17.4199 73.3136 16.7399ZM85.0083 11.0399C86.3283 11.0399 87.3949 11.4599 88.2083 12.2999C89.0216 13.1266 89.4283 14.2866 89.4283 15.7799V22.2799H86.6283V16.1599C86.6283 15.2799 86.4083 14.6066 85.9683 14.1399C85.5283 13.6599 84.9283 13.4199 84.1683 13.4199C83.3949 13.4199 82.7816 13.6599 82.3283 14.1399C81.8883 14.6066 81.6683 15.2799 81.6683 16.1599V22.2799H78.8683V11.1999H81.6683V12.5799C82.0416 12.0999 82.5149 11.7266 83.0883 11.4599C83.6749 11.1799 84.3149 11.0399 85.0083 11.0399ZM112.217 11.1999L108.977 22.2799H105.957L103.937 14.5399L101.917 22.2799H98.8766L95.6166 11.1999H98.4566L100.417 19.6399L102.537 11.1999H105.497L107.577 19.6199L109.537 11.1999H112.217ZM113.012 16.6999C113.012 15.5799 113.232 14.5866 113.672 13.7199C114.125 12.8532 114.732 12.1866 115.492 11.7199C116.265 11.2532 117.125 11.0199 118.072 11.0199C118.898 11.0199 119.618 11.1866 120.232 11.5199C120.858 11.8532 121.358 12.2732 121.732 12.7799V11.1999H124.552V22.2799H121.732V20.6599C121.372 21.1799 120.872 21.6132 120.232 21.9599C119.605 22.2932 118.878 22.4599 118.052 22.4599C117.118 22.4599 116.265 22.2199 115.492 21.7399C114.732 21.2599 114.125 20.5866 113.672 19.7199C113.232 18.8399 113.012 17.8332 113.012 16.6999ZM121.732 16.7399C121.732 16.0599 121.598 15.4799 121.332 14.9999C121.065 14.5066 120.705 14.1332 120.252 13.8799C119.798 13.6132 119.312 13.4799 118.792 13.4799C118.272 13.4799 117.792 13.6066 117.352 13.8599C116.912 14.1132 116.552 14.4866 116.272 14.9799C116.005 15.4599 115.872 16.0332 115.872 16.6999C115.872 17.3666 116.005 17.9532 116.272 18.4599C116.552 18.9532 116.912 19.3332 117.352 19.5999C117.805 19.8666 118.285 19.9999 118.792 19.9999C119.312 19.9999 119.798 19.8732 120.252 19.6199C120.705 19.3532 121.065 18.9799 121.332 18.4999C121.598 18.0066 121.732 17.4199 121.732 16.7399ZM130.086 7.47991V22.2799H127.286V7.47991H130.086ZM135.653 7.47991V22.2799H132.853V7.47991H135.653ZM148.719 16.4999C148.719 16.8999 148.692 17.2599 148.639 17.5799H140.539C140.606 18.3799 140.886 19.0066 141.379 19.4599C141.872 19.9132 142.479 20.1399 143.199 20.1399C144.239 20.1399 144.979 19.6932 145.419 18.7999H148.439C148.119 19.8666 147.506 20.7466 146.599 21.4399C145.692 22.1199 144.579 22.4599 143.259 22.4599C142.192 22.4599 141.232 22.2266 140.379 21.7599C139.539 21.2799 138.879 20.6066 138.399 19.7399C137.932 18.8732 137.699 17.8732 137.699 16.7399C137.699 15.5932 137.932 14.5866 138.399 13.7199C138.866 12.8532 139.519 12.1866 140.359 11.7199C141.199 11.2532 142.166 11.0199 143.259 11.0199C144.312 11.0199 145.252 11.2466 146.079 11.6999C146.919 12.1532 147.566 12.7999 148.019 13.6399C148.486 14.4666 148.719 15.4199 148.719 16.4999ZM145.819 15.6999C145.806 14.9799 145.546 14.4066 145.039 13.9799C144.532 13.5399 143.912 13.3199 143.179 13.3199C142.486 13.3199 141.899 13.5332 141.419 13.9599C140.952 14.3732 140.666 14.9532 140.559 15.6999H145.819ZM154.023 13.4999V18.8599C154.023 19.2332 154.109 19.5066 154.283 19.6799C154.469 19.8399 154.776 19.9199 155.203 19.9199H156.503V22.2799H154.743C152.383 22.2799 151.203 21.1332 151.203 18.8399V13.4999H149.883V11.1999H151.203V8.45991H154.023V11.1999H156.503V13.4999H154.023Z" fill="#00008B"/>
</svg>
