<svg width="150" height="26" viewBox="0 0 150 26" fill="none" xmlns="http://www.w3.org/2000/svg">
<g clip-path="url(#clip0_2041_9974)">
<path d="M33.7206 5.69353C33.8667 8.40585 32.0688 10.7307 29.5743 11.4282C29.5406 11.4503 29.5181 11.4614 29.4956 11.4725C27.0572 12.1146 25.2593 14.3066 25.2593 16.9193C25.2593 16.9415 25.2368 16.9747 25.2144 17.0079C24.866 19.7867 22.4501 21.9344 19.5398 21.9344H19.4274C16.5171 21.9344 14.1012 19.7867 13.7528 17.0079C13.7192 16.9636 13.7079 16.9415 13.7079 16.9193C13.7079 14.3177 11.91 12.1146 9.47163 11.4725C9.44915 11.4614 9.42668 11.4503 9.39299 11.4282C6.8984 10.7307 5.10052 8.40585 5.24658 5.69353C5.39269 2.88152 7.68496 0.578789 10.5391 0.379515C13.8877 0.147028 16.6744 2.75974 16.6744 6.00348C16.6744 6.03671 16.6744 6.081 16.6744 6.11418C16.8317 7.3209 17.3711 8.43908 18.2026 9.30257C18.8993 10.0222 20.0567 10.0222 20.7534 9.30257C21.5849 8.43908 22.1355 7.3209 22.2816 6.11418C22.2816 6.081 22.2816 6.03671 22.2816 6.00348C22.2816 2.75974 25.0683 0.147028 28.4169 0.379515C31.2598 0.578789 33.5633 2.88152 33.7206 5.69353Z" fill="#00B8C2"/>
<path d="M33.1024 25.466C36.2611 25.466 38.8219 22.9431 38.8219 19.8309C38.8219 16.7188 36.2611 14.1959 33.1024 14.1959C29.9435 14.1959 27.3828 16.7188 27.3828 19.8309C27.3828 22.9431 29.9435 25.466 33.1024 25.466Z" fill="#FDB515"/>
<path d="M5.71955 25.5213C8.87833 25.5213 11.439 22.9984 11.439 19.8863C11.439 16.7741 8.87833 14.2512 5.71955 14.2512C2.56072 14.2512 0 16.7741 0 19.8863C0 22.9984 2.56072 25.5213 5.71955 25.5213Z" fill="#FDB515"/>
<path d="M122.179 4.99607C123.5 4.99607 124.572 3.94032 124.572 2.63799C124.572 1.33565 123.5 0.279907 122.179 0.279907C120.857 0.279907 119.785 1.33565 119.785 2.63799C119.785 3.94032 120.857 4.99607 122.179 4.99607Z" fill="#063A4F"/>
<path d="M58.3067 20.4509H54.239C54.0027 20.4509 53.8117 20.2627 53.8117 20.0302C53.8117 20.0192 53.8117 20.0081 53.8117 19.986C53.8117 17.4175 53.8117 14.8602 53.8006 12.2917C53.7895 11.1957 53.2163 10.3986 52.2835 10.144C50.9016 9.76759 49.7104 10.5315 49.5193 11.9264C49.4744 12.2585 49.452 12.5906 49.452 12.9228C49.4407 15.2587 49.452 17.5947 49.452 19.9306V20.0081C49.452 20.2406 49.2609 20.4288 49.0249 20.4288H45.0246C44.7887 20.4288 44.5977 20.2406 44.5977 20.0081V6.49062C44.5977 6.25815 44.7887 6.06992 45.0246 6.06992H48.5193C48.7552 6.06992 48.9463 6.25815 48.9463 6.49062C48.9463 6.84492 49.3508 7.0331 49.643 6.82274C50.7102 6.0035 51.9355 5.71567 53.2724 5.72673C54.7784 5.72673 56.0931 6.13638 57.1042 7.25451C57.2729 7.44274 57.5648 7.43163 57.7335 7.25451C58.5314 6.44633 59.5203 6.01456 60.6552 5.8485C62.7224 5.53855 64.6663 5.73779 66.2734 7.23239C67.2845 8.1734 67.8577 9.36906 67.9476 10.7086C68.0602 12.336 68.0375 13.9745 68.0486 15.6019C68.0602 17.0632 68.0486 18.5357 68.0486 20.0192C68.0486 20.2516 67.8577 20.4399 67.6219 20.4399H63.5542C63.3183 20.4399 63.1269 20.2516 63.1269 20.0192C63.1269 20.0081 63.1269 19.997 63.1269 19.986C63.1269 17.4064 63.1607 14.8269 63.1047 12.2585C63.037 10.3986 61.5764 9.78971 60.138 10.1994C59.2617 10.454 58.7446 11.3175 58.7335 12.491C58.7224 14.993 58.7335 17.484 58.7335 19.986C58.7335 20.0081 58.7335 20.0192 58.7335 20.0413C58.7335 20.2627 58.5426 20.4509 58.3067 20.4509Z" fill="#063A4F"/>
<path d="M83.905 8.12916C82.2419 6.29143 80.0732 5.57183 77.6237 5.57183C77.3424 5.57183 77.0616 5.56072 76.7697 5.57183C76.5671 5.58289 76.3651 5.61608 76.1737 5.64931C73.9828 6.0036 72.1288 6.9335 70.8591 8.77128C69.6116 10.5758 69.2747 12.6018 69.6565 14.7384C70.0272 16.7865 71.0611 18.4472 72.8479 19.6096C74.5671 20.7277 76.4772 21.082 78.5111 20.916C80.1631 20.772 81.6798 20.2406 82.9949 19.2111C84.7025 17.8715 85.5681 16.0669 85.7591 13.9635C85.9389 11.7825 85.3995 9.78981 83.905 8.12916ZM77.6459 16.7201C75.657 16.7201 74.2974 15.303 74.2974 13.2328C74.2974 11.1847 75.6459 9.78981 77.6459 9.78981C79.6459 9.78981 81.0055 11.1958 81.0055 13.2328C81.0055 15.292 79.6348 16.7091 77.6459 16.7201Z" fill="#063A4F"/>
<path d="M101.636 20.451H97.3885C97.2087 20.451 97.0738 20.307 97.0738 20.141V19.986C97.0738 17.6058 97.085 15.2255 97.0627 12.8564C97.0627 12.4468 97.0178 12.0261 96.9163 11.6386C96.6132 10.4983 95.6804 9.94475 94.2981 10.0333C93.2198 10.0998 92.388 10.8526 92.242 11.9375C92.1971 12.2697 92.1743 12.6018 92.1743 12.9339C92.1632 15.2698 92.1743 17.6058 92.1743 19.9417V20.1299C92.1743 20.307 92.0284 20.4399 91.8597 20.4399H87.635C87.4552 20.4399 87.3203 20.296 87.3203 20.1299V6.39102C87.3203 6.21389 87.4663 6.08107 87.635 6.08107H91.6127C91.7925 6.08107 91.9274 6.22495 91.9274 6.39102V6.59031C91.9274 6.85602 92.2531 6.9999 92.4557 6.82278C92.5789 6.71208 92.7137 6.61243 92.8486 6.52389C96.1971 4.30971 100.996 6.25819 101.782 10.1551C101.895 10.7308 101.962 11.3397 101.962 11.9264C101.984 14.6609 101.973 17.3954 101.973 20.1299C101.962 20.3181 101.816 20.451 101.636 20.451Z" fill="#063A4F"/>
<path d="M108.043 20.451H103.796C103.627 20.451 103.492 20.3182 103.492 20.1521V6.36893C103.492 6.20287 103.627 6.06999 103.796 6.06999H107.796C107.964 6.06999 108.099 6.20287 108.099 6.36893V6.61247C108.099 6.86711 108.414 7.01105 108.605 6.84499C108.74 6.73429 108.875 6.62358 109.009 6.53499C112.358 4.32083 117.156 6.26929 117.943 10.1662C118.055 10.7419 118.122 11.3508 118.122 11.9376C118.145 14.6721 118.134 17.4065 118.134 20.141C118.134 20.3071 117.988 20.4399 117.831 20.4399H113.56C113.392 20.4399 113.257 20.3071 113.257 20.141C113.257 20.0968 113.257 20.0414 113.257 19.9971C113.257 17.6169 113.268 15.2367 113.246 12.8675C113.246 12.4579 113.201 12.0372 113.1 11.6497C112.796 10.5094 111.864 9.95585 110.482 10.0444C109.403 10.1109 108.571 10.8637 108.426 11.9486C108.381 12.2808 108.358 12.6129 108.358 12.945C108.347 15.281 108.358 17.6169 108.358 19.9528V20.1632C108.347 20.3071 108.212 20.451 108.043 20.451Z" fill="#063A4F"/>
<path d="M149.999 6.04779C149.943 6.20279 149.91 6.32455 149.865 6.43526C147.269 12.801 144.662 19.1557 142.067 25.5324H137.1C137.695 23.9936 138.291 22.4658 138.897 20.938C139.01 20.6723 138.999 20.4509 138.886 20.1963C137.392 16.8418 135.897 13.4874 134.403 10.1329H133.526C133.335 10.1329 133.178 10.2879 133.178 10.4761V20.0856C133.178 20.2738 133.021 20.4288 132.83 20.4288H128.604C128.414 20.4288 128.256 20.2738 128.256 20.0856V10.4872C128.256 10.299 128.099 10.144 127.908 10.144H126.38C126.189 10.144 126.031 9.989 126.031 9.80082V6.39102C126.031 6.20279 126.189 6.04779 126.38 6.04779H128.234C128.234 6.08102 128.234 6.09208 128.245 6.04779V6.01461C128.245 5.97031 128.256 5.91496 128.256 5.82637C128.301 5.16214 128.358 4.46468 128.56 3.83365C129.155 1.98482 130.571 1.02166 132.414 0.589898C133.481 0.33527 135.459 0.313128 136.538 0.501332C136.617 0.512403 136.819 0.534544 137.01 0.556686C137.19 0.578828 137.325 0.722748 137.325 0.899883V4.06613C137.325 4.25434 137.167 4.40933 136.976 4.40933C136.324 4.40933 135.155 4.40933 134.819 4.40933C133.785 4.40933 133.223 4.94073 133.189 5.92602C133.189 5.91496 133.189 5.9039 133.189 5.89284C133.189 5.48319 133.189 5.83748 133.189 6.0589C133.189 6.19173 133.189 6.2692 133.189 6.0589C134.662 6.0589 136.099 6.0589 137.538 6.06996C137.583 6.06996 137.628 6.06996 137.662 6.06996H137.729C137.83 6.06996 137.976 6.23602 138.021 6.35779C139.1 8.91516 140.167 11.4725 141.246 14.0299C141.302 14.1738 141.37 14.3177 141.46 14.528C141.92 13.3767 142.359 12.2917 142.785 11.1957C143.415 9.60152 144.055 8.01839 144.662 6.4242C144.775 6.13637 144.909 6.0589 145.224 6.0589C146.786 6.0589 148.359 6.04779 149.999 6.04779Z" fill="#063A4F"/>
<path d="M128.245 6.00355C128.245 6.01461 128.245 6.02567 128.245 6.03673H128.234C128.222 5.91496 128.245 5.52749 128.245 6.00355Z" fill="#063A4F"/>
<path d="M137.528 6.05889C136.09 6.04783 134.651 6.04783 133.18 6.04783C133.18 6.18066 133.18 6.25818 133.18 6.04783C133.18 5.83748 133.18 5.48323 133.18 5.88177C133.18 5.89283 133.18 5.90389 133.18 5.915C133.18 5.94818 133.191 5.98142 133.202 6.03677H137.416C137.449 6.03677 137.494 6.04783 137.528 6.05889Z" fill="#063A4F"/>
<path d="M124.504 6.44636V20.0635C124.504 20.2738 124.335 20.4399 124.121 20.4399H120.054C119.84 20.4399 119.672 20.2738 119.672 20.0635V6.44636C119.672 6.23601 119.84 6.06995 120.054 6.06995H124.121C124.335 6.06995 124.504 6.23601 124.504 6.44636Z" fill="#063A4F"/>
</g>
<defs>
<clipPath id="clip0_2041_9974">
<rect width="150" height="25.2525" fill="white" transform="translate(0 0.279907)"/>
</clipPath>
</defs>
</svg>
