<svg width="150" height="27" viewBox="0 0 150 27" fill="none" xmlns="http://www.w3.org/2000/svg">
<g clip-path="url(#clip0_2041_10003)">
<path d="M21.3281 2.82385H1.22828C0.586795 2.82385 -0.00123062 3.35385 -0.00123062 4.04285V6.26885C-0.00123062 6.95785 0.586795 7.54085 1.22828 7.54085H21.3281C22.023 7.54085 22.5576 6.95785 22.611 6.26885V4.09585C22.611 3.35385 22.023 2.82385 21.3281 2.82385ZM21.3281 15.3319H1.22828C0.907536 15.3319 0.586795 15.4909 0.319511 15.7029C0.105683 15.9149 -0.0546875 16.2329 -0.0546875 16.6039V18.8299C-0.0546875 19.5189 0.533338 20.1019 1.17482 20.1019H21.2746C21.9695 20.1019 22.5041 19.5719 22.5576 18.8299V16.6039C22.611 15.8619 22.023 15.3319 21.3281 15.3319ZM12.5611 21.5329H1.22828C0.907536 21.5329 0.586795 21.6389 0.372968 21.9039C0.15914 22.1159 -0.00123062 22.4339 -0.00123062 22.8049V25.0309C-0.00123062 25.7199 0.586795 26.3029 1.22828 26.3029H12.5077C13.2026 26.3029 13.7372 25.7199 13.7372 25.0309V22.7519C13.7906 22.1159 13.2561 21.5329 12.5611 21.5329ZM22.611 9.07785H1.22828C0.907536 9.07785 0.586795 9.18385 0.372968 9.44885C0.15914 9.66085 -0.00123062 9.97885 -0.00123062 10.3499V12.5759C-0.00123062 13.2649 0.586795 13.8479 1.22828 13.8479H22.5576C23.2525 13.8479 23.7871 13.2649 23.7871 12.5759V10.3499C23.8405 9.60785 23.306 9.07785 22.611 9.07785Z" fill="#00C3F7"/>
<path d="M45.9732 7.85891C45.3317 7.22291 44.6367 6.74591 43.7814 6.37491C42.9796 6.00391 42.0708 5.84491 41.162 5.84491C40.3067 5.84491 39.4514 6.00391 38.6496 6.37491C38.115 6.63991 37.6339 6.95791 37.2597 7.38191V7.01091C37.2597 6.79891 37.1528 6.63991 37.0459 6.48091C36.8855 6.32191 36.7251 6.21591 36.5113 6.21591H33.6781C33.4643 6.21591 33.2504 6.32191 33.1435 6.48091C32.9831 6.63991 32.9297 6.79891 32.9297 7.01091V25.5609C32.9297 25.7729 33.0366 25.9319 33.1435 26.0909C33.3039 26.2499 33.4643 26.3029 33.6781 26.3029H36.5113C36.7251 26.3029 36.8855 26.2499 37.0459 26.0909C37.2062 25.9319 37.2597 25.7729 37.2597 25.5609V19.2009C37.6873 19.6249 38.1685 19.9959 38.7565 20.1549C39.5049 20.4199 40.3067 20.5789 41.0551 20.5789C41.9639 20.5789 42.8727 20.4199 43.6745 20.0489C44.5298 19.7309 45.2782 19.2009 45.8663 18.5649C46.5077 17.8759 47.0423 17.0809 47.363 16.2329C47.7372 15.2789 47.9511 14.2189 47.8976 13.2119C47.8976 12.1519 47.7372 11.1449 47.363 10.1379C47.1492 9.34291 46.6146 8.54791 45.9732 7.85891ZM43.4607 14.5899C43.3003 14.9609 43.0865 15.3319 42.8192 15.6499C42.2312 16.2859 41.4293 16.6039 40.574 16.6039C40.1464 16.6039 39.7187 16.4979 39.3445 16.3389C38.9703 16.1799 38.5961 15.9149 38.3288 15.6499C38.0615 15.3319 37.7943 14.9609 37.6339 14.5899C37.3132 13.7419 37.3132 12.8409 37.6339 11.9929C37.7943 11.6219 38.0081 11.2509 38.3288 10.9329C38.6496 10.6149 38.9703 10.4029 39.3445 10.1909C39.7187 10.0319 40.1464 9.92591 40.574 9.92591C41.0017 9.92591 41.4293 10.0319 41.857 10.1909C42.2312 10.3499 42.5519 10.6149 42.8727 10.8799C43.14 11.1979 43.3538 11.5159 43.5142 11.9399C43.7814 12.7879 43.7814 13.7419 43.4607 14.5899ZM63.3467 6.26891H60.5134C60.2996 6.26891 60.1392 6.37491 59.9789 6.48091C59.8185 6.63991 59.765 6.85191 59.765 7.06391V7.38191C59.3908 6.95791 58.9632 6.63991 58.4821 6.42791C57.7337 6.05691 56.8784 5.89791 56.0231 5.89791C54.2055 5.89791 52.4414 6.63991 51.1585 7.91191C50.517 8.60091 49.9824 9.39591 49.6082 10.2439C49.1806 11.1979 49.0202 12.2579 49.0202 13.3179C49.0202 14.3779 49.1806 15.4379 49.6082 16.3919C49.9824 17.2399 50.517 18.0349 51.1585 18.7239C52.4414 19.9959 54.1521 20.7379 55.9696 20.7379C56.8249 20.7379 57.6802 20.5789 58.4286 20.2079C58.9097 19.9429 59.3908 19.6249 59.7116 19.2539V19.6249C59.7116 19.8369 59.8185 19.9959 59.9254 20.1549C60.0858 20.2609 60.2462 20.3669 60.46 20.3669H63.2932C63.507 20.3669 63.6674 20.2609 63.8278 20.1549C63.9881 19.9959 64.0416 19.8369 64.0416 19.6249V7.06391C64.0416 6.85191 63.9881 6.69291 63.8278 6.53391C63.7209 6.32191 63.5605 6.26891 63.3467 6.26891ZM59.4978 14.5369C59.3374 14.9079 59.1236 15.2789 58.8563 15.5969C58.589 15.8619 58.2148 16.1269 57.8406 16.3389C57.0387 16.7099 56.13 16.7099 55.3281 16.3389C54.9539 16.1799 54.5797 15.9149 54.3124 15.5969C54.0452 15.2789 53.7779 14.9079 53.671 14.5369C53.3502 13.6889 53.3502 12.7879 53.671 11.9399C53.8313 11.5689 54.0452 11.1979 54.3124 10.8799C54.5797 10.5619 54.9539 10.3499 55.3281 10.1379C56.13 9.76691 57.0387 9.76691 57.8406 10.1379C58.2148 10.2969 58.5355 10.5619 58.8563 10.8269C59.1236 11.1449 59.3374 11.4629 59.4978 11.8869C59.872 12.7879 59.872 13.7419 59.4978 14.5369ZM91.5184 12.8939C91.0908 12.5229 90.6631 12.2579 90.1286 12.0459C89.594 11.8339 89.0594 11.6749 88.4714 11.5689L86.3331 11.1449C85.7985 11.0389 85.3709 10.8799 85.1571 10.7209C84.9967 10.6149 84.8898 10.4029 84.8898 10.1909C84.8898 9.97891 84.9967 9.76691 85.3174 9.60791C85.6916 9.39591 86.1193 9.28991 86.4935 9.34291C87.028 9.34291 87.6161 9.44891 88.0972 9.66091C88.5783 9.87291 89.0594 10.1379 89.4871 10.4029C90.1285 10.7739 90.6631 10.7209 91.0373 10.2969L92.053 9.13091C92.2668 8.91891 92.3737 8.65391 92.3737 8.38891C92.3737 8.12391 92.2134 7.80591 91.9995 7.64691C91.5719 7.27591 90.8769 6.85191 89.9147 6.48091C89.006 6.10991 87.8299 5.89791 86.44 5.89791C85.5847 5.89791 84.7829 6.00391 83.981 6.26891C83.2861 6.48091 82.6446 6.79891 82.11 7.22291C81.5755 7.59391 81.2013 8.12391 80.8805 8.70691C80.6132 9.28991 80.4529 9.87291 80.4529 10.5089C80.4529 11.6749 80.8271 12.6289 81.522 13.3179C82.2169 14.0069 83.1257 14.4839 84.3017 14.6959L86.5469 15.1729C87.028 15.2789 87.5092 15.3849 87.9903 15.5969C88.2576 15.7029 88.4179 15.9149 88.4179 16.2329C88.4179 16.4979 88.311 16.7099 87.9903 16.9219C87.723 17.1339 87.2419 17.2399 86.6539 17.2399C86.0658 17.2399 85.4243 17.1339 84.8898 16.8689C84.3552 16.6039 83.8741 16.2859 83.4464 15.9149C83.2326 15.7559 83.0188 15.6499 82.805 15.5439C82.5377 15.4909 82.2169 15.5439 81.8962 15.8089L80.6667 16.7629C80.3459 17.0279 80.1321 17.4519 80.239 17.8229C80.2925 18.2469 80.6667 18.6179 81.2547 19.0949C82.805 20.1549 84.6759 20.6849 86.5469 20.6319C87.4022 20.6319 88.311 20.5259 89.1129 20.2609C89.8613 20.0489 90.5027 19.7309 91.0908 19.2539C91.6253 18.8299 92.1065 18.2999 92.3737 17.7169C92.6945 17.1339 92.8014 16.4979 92.8014 15.8089C92.8014 15.2259 92.6945 14.6429 92.4272 14.0599C92.2134 13.6889 91.8926 13.2649 91.5184 12.8939ZM103.814 16.2859C103.707 16.0739 103.439 15.9149 103.172 15.8619C102.905 15.8619 102.637 15.9679 102.424 16.0739C102.103 16.2859 101.675 16.4449 101.248 16.4449C101.141 16.4449 100.98 16.4449 100.82 16.3919C100.66 16.3919 100.553 16.2859 100.446 16.1799C100.339 16.0739 100.232 15.9149 100.125 15.7559C100.018 15.5439 99.9646 15.2789 100.018 15.0139V9.92591H103.707C103.92 9.92591 104.134 9.81991 104.295 9.66091C104.455 9.50191 104.562 9.34291 104.562 9.13091V6.95791C104.562 6.74591 104.455 6.53391 104.295 6.42791C104.134 6.26891 103.974 6.21591 103.76 6.21591H100.072V2.77091C100.072 2.55891 100.018 2.34691 99.8577 2.24091C99.6973 2.08191 99.537 2.02891 99.3231 2.02891H96.4899C96.2761 2.02891 96.0623 2.08191 95.9553 2.24091C95.795 2.39991 95.7415 2.61191 95.7415 2.77091V6.26891H94.1378C93.924 6.26891 93.7102 6.37491 93.6032 6.53391C93.4429 6.69291 93.3894 6.85191 93.3894 7.06391V9.23691C93.3894 9.44891 93.4429 9.60791 93.6032 9.76691C93.7102 9.92591 93.924 10.0319 94.1378 10.0319H95.7415V16.0739C95.7415 16.8159 95.8484 17.5049 96.1692 18.1409C96.4365 18.6709 96.8107 19.1479 97.2383 19.5189C97.666 19.8899 98.2005 20.1549 98.7886 20.3139C99.3766 20.4729 99.9646 20.5789 100.553 20.5789C101.354 20.5789 102.103 20.4729 102.851 20.2079C103.546 19.9959 104.188 19.5719 104.669 19.0949C104.99 18.7769 105.043 18.2469 104.776 17.8759L103.814 16.2859ZM119.316 6.26891H116.483C116.269 6.26891 116.109 6.37491 115.948 6.48091C115.788 6.63991 115.734 6.85191 115.734 7.06391V7.38191C115.36 6.95791 114.933 6.63991 114.451 6.42791C113.703 6.05691 112.848 5.89791 111.992 5.89791C110.175 5.89791 108.464 6.63991 107.181 7.91191C106.54 8.60091 106.005 9.39591 105.631 10.2439C105.203 11.1979 105.043 12.2579 105.043 13.2649C105.043 14.3249 105.203 15.3319 105.631 16.3389C106.005 17.1869 106.54 17.9819 107.181 18.6709C108.464 19.9429 110.175 20.6849 111.992 20.6849C112.848 20.6849 113.703 20.5259 114.451 20.1549C114.933 19.8899 115.414 19.5719 115.734 19.2009V19.5719C115.734 19.7839 115.788 19.9429 115.948 20.1019C116.109 20.2609 116.269 20.3139 116.483 20.3139H119.316C119.744 20.3139 120.064 19.9959 120.064 19.5719V7.06391C120.064 6.85191 120.011 6.69291 119.851 6.53391C119.69 6.32191 119.53 6.26891 119.316 6.26891ZM115.467 14.5369C115.307 14.9079 115.093 15.2789 114.826 15.5969C114.505 15.8619 114.184 16.1269 113.81 16.3389C113.436 16.4979 112.955 16.6039 112.527 16.6039C112.099 16.6039 111.672 16.4979 111.297 16.3389C110.923 16.1799 110.549 15.9149 110.282 15.5969C110.015 15.2789 109.747 14.9079 109.64 14.5369C109.32 13.6889 109.32 12.7879 109.64 11.9399C109.801 11.5689 110.015 11.1979 110.282 10.8799C110.603 10.5619 110.923 10.3499 111.297 10.1379C111.672 9.97891 112.099 9.87291 112.527 9.87291C112.955 9.87291 113.382 9.97891 113.81 10.1379C114.184 10.2969 114.505 10.5619 114.826 10.8269C115.093 11.1449 115.36 11.4629 115.467 11.8869C115.841 12.7879 115.841 13.7419 115.467 14.5369ZM134.819 16.0739L133.215 14.8549C132.894 14.5899 132.627 14.5369 132.359 14.6429C132.146 14.7489 131.932 14.9079 131.771 15.0669C131.397 15.4909 131.023 15.8619 130.542 16.1799C130.061 16.4449 129.526 16.6039 128.938 16.5509C128.297 16.5509 127.709 16.3919 127.174 16.0209C126.64 15.6499 126.265 15.1199 126.052 14.5369C125.891 14.1129 125.838 13.6889 125.838 13.2649C125.838 12.8409 125.891 12.3639 126.052 11.9399C126.212 11.5689 126.426 11.1979 126.693 10.8799C127.014 10.5619 127.335 10.3499 127.709 10.1909C128.083 10.0319 128.564 9.92591 128.992 9.92591C129.526 9.92591 130.114 10.0319 130.542 10.2969C131.023 10.6149 131.397 10.9859 131.771 11.4099C131.932 11.5689 132.146 11.7279 132.359 11.8339C132.627 11.9399 132.894 11.8869 133.215 11.6219L134.819 10.4029C135.032 10.2439 135.193 10.0849 135.246 9.87291C135.353 9.60791 135.3 9.34291 135.193 9.13091C134.551 8.17691 133.696 7.38191 132.68 6.79891C131.611 6.21591 130.328 5.89791 128.885 5.89791C127.869 5.89791 126.853 6.10991 125.945 6.48091C125.036 6.85191 124.234 7.38191 123.539 8.07091C122.844 8.75991 122.31 9.55491 121.935 10.4029C121.187 12.2579 121.187 14.3779 121.935 16.2329C122.31 17.1339 122.844 17.9289 123.539 18.5649C124.982 19.9429 126.853 20.6849 128.885 20.6849C130.328 20.6849 131.611 20.3669 132.68 19.7839C133.696 19.2009 134.551 18.4059 135.193 17.4519C135.353 17.2399 135.353 16.9749 135.246 16.7099C135.139 16.4449 134.979 16.2329 134.819 16.0739ZM149.84 18.9889L145.403 12.4699L149.198 7.48791C149.359 7.27591 149.412 6.95791 149.359 6.69291C149.305 6.48091 149.091 6.26891 148.664 6.26891H145.67C145.51 6.26891 145.35 6.32191 145.189 6.37491C144.975 6.48091 144.868 6.58691 144.761 6.79891L141.714 11.0389H140.966V1.02191C140.966 0.809907 140.913 0.650907 140.752 0.491907C140.592 0.332907 140.431 0.279907 140.218 0.279907H137.384C137.171 0.279907 137.01 0.332907 136.85 0.491907C136.689 0.650907 136.636 0.809907 136.636 1.02191V19.4659C136.636 19.6779 136.743 19.8899 136.85 19.9959C137.01 20.1549 137.171 20.2079 137.384 20.2079H140.218C140.431 20.2079 140.592 20.1019 140.752 19.9959C140.913 19.8369 140.966 19.6779 140.966 19.4659V14.5899H141.768L145.082 19.6779C145.296 20.0489 145.67 20.2609 146.044 20.2609H149.198C149.68 20.2609 149.893 20.0489 149.947 19.8369C150.054 19.5719 150 19.2539 149.84 18.9889ZM79.3837 6.26891H76.2298C76.0159 6.26891 75.7486 6.32191 75.5883 6.53391C75.4279 6.69291 75.321 6.85191 75.321 7.06391L72.9689 15.6499H72.3809L69.8684 7.01091C69.8149 6.85191 69.7615 6.63991 69.6011 6.48091C69.4407 6.32191 69.2269 6.21591 69.0131 6.21591H65.7522C65.3246 6.21591 65.0573 6.37491 64.9504 6.63991C64.8434 6.90491 64.8434 7.16991 64.9504 7.38191L68.9596 19.5189C69.0131 19.6779 69.12 19.8899 69.2804 19.9959C69.4407 20.1549 69.6546 20.2079 69.8684 20.2079H71.579L71.4186 20.5789L71.0444 21.6919C70.9375 22.0099 70.7237 22.3279 70.403 22.5929C70.1357 22.8049 69.8149 22.9109 69.4407 22.9109C69.1735 22.9109 68.8527 22.8579 68.5854 22.7519C68.3181 22.6459 68.0509 22.4869 67.837 22.3279C67.6232 22.1689 67.3559 22.1159 67.1421 22.1159H67.0886C66.7679 22.1159 66.5006 22.2749 66.3937 22.5399L65.378 24.0239C64.9504 24.6599 65.2176 25.0839 65.4849 25.2959C66.0195 25.7729 66.661 26.1439 67.3559 26.4089C68.1043 26.6739 68.9062 26.7799 69.7615 26.7799C71.2048 26.7799 72.4343 26.4089 73.3431 25.6139C74.3053 24.7659 75.0003 23.6529 75.3745 22.4339L80.0252 7.43491C80.1321 7.16991 80.1321 6.90491 80.0252 6.63991C80.0252 6.42791 79.8114 6.26891 79.3837 6.26891Z" fill="#011B33"/>
</g>
<defs>
<clipPath id="clip0_2041_10003">
<rect width="150" height="26.5" fill="white" transform="translate(0 0.279907)"/>
</clipPath>
</defs>
</svg>
