<svg width="108" height="31" viewBox="0 0 108 31" fill="none" xmlns="http://www.w3.org/2000/svg">
<path d="M26.5846 10.5508H2.41797M2.41797 15.3841H6.70354C7.35627 15.3841 7.68263 15.3841 7.99822 15.4404C8.27833 15.4903 8.55159 15.573 8.81236 15.6869C9.10614 15.8151 9.37769 15.9962 9.9208 16.3582L10.6235 16.8267C11.1666 17.1887 11.4381 17.3698 11.7319 17.498C11.9927 17.6119 12.2659 17.6946 12.5461 17.7445C12.8616 17.8008 13.188 17.8008 13.8407 17.8008H15.1619C15.8146 17.8008 16.141 17.8008 16.4565 17.7445C16.7367 17.6946 17.0099 17.6119 17.2707 17.498C17.5645 17.3698 17.836 17.1887 18.3791 16.8267L19.0818 16.3582C19.6249 15.9962 19.8965 15.8151 20.1902 15.6869C20.451 15.573 20.7243 15.4903 21.0044 15.4404C21.32 15.3841 21.6463 15.3841 22.2991 15.3841H26.5846M2.41797 8.97995L2.41797 20.5799C2.41797 21.9334 2.41797 22.6101 2.68137 23.1271C2.91306 23.5818 3.28277 23.9515 3.73749 24.1832C4.25444 24.4466 4.93118 24.4466 6.28464 24.4466L22.718 24.4466C24.0714 24.4466 24.7482 24.4466 25.2651 24.1832C25.7198 23.9515 26.0895 23.5818 26.3212 23.1271C26.5846 22.6101 26.5846 21.9334 26.5846 20.5799V8.97995C26.5846 7.62649 26.5846 6.94976 26.3212 6.43281C26.0895 5.97808 25.7198 5.60838 25.2651 5.37668C24.7482 5.11328 24.0714 5.11328 22.718 5.11328L6.28464 5.11328C4.93118 5.11328 4.25445 5.11328 3.73749 5.37668C3.28277 5.60838 2.91306 5.97808 2.68137 6.4328C2.41797 6.94976 2.41797 7.62649 2.41797 8.97995Z" stroke="#00008B" stroke-width="1.5" stroke-linecap="round" stroke-linejoin="round"/>
<path d="M62.04 8.31991L58.14 22.2799H54.84L52.22 12.3399L49.48 22.2799L46.2 22.2999L42.44 8.31991H45.44L47.9 19.1599L50.74 8.31991H53.86L56.54 19.0999L59.02 8.31991H62.04ZM63.1483 16.6999C63.1483 15.5799 63.3683 14.5866 63.8083 13.7199C64.2616 12.8532 64.8683 12.1866 65.6283 11.7199C66.4016 11.2532 67.2616 11.0199 68.2083 11.0199C69.0349 11.0199 69.7549 11.1866 70.3683 11.5199C70.9949 11.8532 71.4949 12.2732 71.8683 12.7799V11.1999H74.6883V22.2799H71.8683V20.6599C71.5083 21.1799 71.0083 21.6132 70.3683 21.9599C69.7416 22.2932 69.0149 22.4599 68.1883 22.4599C67.2549 22.4599 66.4016 22.2199 65.6283 21.7399C64.8683 21.2599 64.2616 20.5866 63.8083 19.7199C63.3683 18.8399 63.1483 17.8332 63.1483 16.6999ZM71.8683 16.7399C71.8683 16.0599 71.7349 15.4799 71.4683 14.9999C71.2016 14.5066 70.8416 14.1332 70.3883 13.8799C69.9349 13.6132 69.4483 13.4799 68.9283 13.4799C68.4083 13.4799 67.9283 13.6066 67.4883 13.8599C67.0483 14.1132 66.6883 14.4866 66.4083 14.9799C66.1416 15.4599 66.0083 16.0332 66.0083 16.6999C66.0083 17.3666 66.1416 17.9532 66.4083 18.4599C66.6883 18.9532 67.0483 19.3332 67.4883 19.5999C67.9416 19.8666 68.4216 19.9999 68.9283 19.9999C69.4483 19.9999 69.9349 19.8732 70.3883 19.6199C70.8416 19.3532 71.2016 18.9799 71.4683 18.4999C71.7349 18.0066 71.8683 17.4199 71.8683 16.7399ZM80.223 7.47991V22.2799H77.423V7.47991H80.223ZM85.7894 7.47991V22.2799H82.9894V7.47991H85.7894ZM98.8558 16.4999C98.8558 16.8999 98.8291 17.2599 98.7758 17.5799H90.6758C90.7424 18.3799 91.0224 19.0066 91.5158 19.4599C92.0091 19.9132 92.6158 20.1399 93.3358 20.1399C94.3758 20.1399 95.1158 19.6932 95.5558 18.7999H98.5758C98.2558 19.8666 97.6424 20.7466 96.7358 21.4399C95.8291 22.1199 94.7158 22.4599 93.3958 22.4599C92.3291 22.4599 91.3691 22.2266 90.5158 21.7599C89.6758 21.2799 89.0158 20.6066 88.5358 19.7399C88.0691 18.8732 87.8358 17.8732 87.8358 16.7399C87.8358 15.5932 88.0691 14.5866 88.5358 13.7199C89.0024 12.8532 89.6558 12.1866 90.4958 11.7199C91.3358 11.2532 92.3024 11.0199 93.3958 11.0199C94.4491 11.0199 95.3891 11.2466 96.2158 11.6999C97.0558 12.1532 97.7024 12.7999 98.1558 13.6399C98.6224 14.4666 98.8558 15.4199 98.8558 16.4999ZM95.9558 15.6999C95.9424 14.9799 95.6824 14.4066 95.1758 13.9799C94.6691 13.5399 94.0491 13.3199 93.3158 13.3199C92.6224 13.3199 92.0358 13.5332 91.5558 13.9599C91.0891 14.3732 90.8024 14.9532 90.6958 15.6999H95.9558ZM104.16 13.4999V18.8599C104.16 19.2332 104.246 19.5066 104.42 19.6799C104.606 19.8399 104.913 19.9199 105.34 19.9199H106.64V22.2799H104.88C102.52 22.2799 101.34 21.1332 101.34 18.8399V13.4999H100.02V11.1999H101.34V8.45991H104.16V11.1999H106.64V13.4999H104.16Z" fill="#00008B"/>
</svg>
