<svg width="24" height="25" viewBox="0 0 24 25" fill="none" xmlns="http://www.w3.org/2000/svg">
<g clip-path="url(#clip0_1955_4865)">
<path d="M23.7643 12.4169C23.7643 11.6011 23.6982 10.781 23.5571 9.97852H12.2383V14.5995H18.72C18.451 16.0899 17.5868 17.4082 16.3213 18.246V21.2444H20.1883C22.4591 19.1543 23.7643 16.0678 23.7643 12.4169Z" fill="#4285F4"/>
<path d="M12.2391 24.1419C15.4756 24.1419 18.205 23.0793 20.1936 21.245L16.3266 18.2467C15.2507 18.9786 13.8618 19.3931 12.2435 19.3931C9.11291 19.3931 6.45849 17.281 5.50607 14.4414H1.51562V17.5323C3.55274 21.5845 7.70192 24.1419 12.2391 24.1419Z" fill="#34A853"/>
<path d="M5.50082 14.4413C4.99816 12.951 4.99816 11.3372 5.50082 9.8468V6.75586H1.51478C-0.187219 10.1466 -0.187219 14.1415 1.51478 17.5323L5.50082 14.4413Z" fill="#FBBC04"/>
<path d="M12.2391 4.89029C13.9499 4.86383 15.6034 5.50759 16.8425 6.68929L20.2685 3.26324C18.0991 1.22613 15.2198 0.106159 12.2391 0.141434C7.70192 0.141434 3.55274 2.69885 1.51562 6.75543L5.50166 9.84638C6.44967 7.00236 9.1085 4.89029 12.2391 4.89029Z" fill="#EA4335"/>
</g>
<defs>
<clipPath id="clip0_1955_4865">
<rect width="24" height="24" fill="white" transform="translate(0 0.140625)"/>
</clipPath>
</defs>
</svg>
